<svg width="16" height="16" viewBox="0 0 16 16" fill="none" xmlns="http://www.w3.org/2000/svg">
<path fill-rule="evenodd" clip-rule="evenodd" d="M1.86866 15.9996C1.78268 15.9996 1.69751 15.9774 1.61802 15.932C1.44282 15.8305 1.33331 15.6301 1.33331 15.412V1.44245C1.33331 0.646436 1.92301 0 2.64815 0H13.3526C14.0778 0 14.6666 0.646436 14.6666 1.44245V15.412C14.6666 15.6301 14.5563 15.8305 14.3811 15.932C14.2051 16.0335 13.9926 16.021 13.8296 15.8972L7.99998 11.5254L2.1704 15.8972C2.08036 15.9649 1.97492 15.9996 1.86866 15.9996ZM2.64812 1.17529C2.51347 1.17529 2.40397 1.2955 2.40397 1.44241V14.2989L7.69821 10.3277C7.88071 10.1906 8.12 10.1906 8.30169 10.3277L13.5959 14.2989V1.44241C13.5959 1.2955 13.4864 1.17529 13.3526 1.17529H2.64812Z" fill="#FF5900"/>
</svg>
